
<svg version="1.1" id="Layer_1" xmlns="http://www.w3.org/2000/svg" xmlns:xlink="http://www.w3.org/1999/xlink" x="0px" y="0px"
	 viewBox="0 0 427.9 345.2" style="enable-background:new 0 0 427.9 345.2;" xml:space="preserve">
<style type="text/css">
	.st0{fill:#FFFFFF;}
	.st1{font-family:'SuisseIntl-Regular';}
	.st2{font-size:52.4759px;}
	.st3{font-size:10.4952px;}
	.st4{fill:#00FF29;}
</style>
<g>
	<rect x="-0.3" y="0" width="428.2" height="345.2"/>
</g>
<g>
	<g>
		<path class="st0" d="M128.7,104.1c1.9-1.4,4.2-2.2,6.7-2.2c6.1,0,9.6,3,10.8,7.2h5.2c-1.6-7.3-7.9-11.8-15.7-11.8
			c-3.1,0-5.9,0.7-8.3,1.9c0.2,0.5,0.3,0.9,0.6,1.4C127.5,102.3,127.9,103.3,128.7,104.1z"/>
		<text transform="matrix(1 0 0 1 350.3184 136.1772)" class="st0 st1 st2"> </text>
		<text transform="matrix(1 0 0 1 294.4326 191.2768)" class="st0 st1 st2"> </text>
		<text transform="matrix(1 0 0 1 392.2432 246.3764)" class="st0 st1 st2"> </text>
		<text transform="matrix(1 0 0 1 333.3662 301.476)" class="st0 st1 st3">  </text>
		<g>
			<path class="st4" d="M343.9,300.8c-0.5,0.6-1.3,0.7-2.5,0.7h-2.1v-7.3h2c1.5,0,2.7,0.3,2.8,2c0,0.7-0.3,1.3-0.9,1.6
				c0.8,0.3,1.1,0.9,1.1,1.7C344.3,300,344.2,300.5,343.9,300.8z M340.3,297.3h1c0.4,0,0.8,0,1-0.1c0.5-0.1,0.9-0.4,0.9-1.1
				c0-0.4-0.1-0.6-0.3-0.8c-0.3-0.3-0.8-0.4-1.6-0.4h-1V297.3z M343.1,298.6c-0.4-0.4-0.9-0.4-1.6-0.4h-1.2v2.5h1.2
				c0.5,0,0.8,0,1.1-0.1c0.5-0.1,0.9-0.4,0.9-1.2C343.4,299.1,343.3,298.8,343.1,298.6z"/>
			<path class="st4" d="M346,294.1h4.6v0.9h-3.7v2.4h3.3v0.8h-3.3v2.4h3.7v0.9H346V294.1z"/>
			<path class="st4" d="M354.1,295h-2.2v-0.8h5.5v0.8h-2.3v6.5h-1V295z"/>
			<path class="st4" d="M362.4,299.3h-2.5l-0.7,2.2h-1l2.4-7.3h1.1l2.4,7.3h-1L362.4,299.3z M362.1,298.4l-0.7-2.2l-0.3-1.2l0,0
				l-0.2,0.6l-0.2,0.6l-0.7,2.2H362.1z"/>
		</g>
		<path class="st0" d="M57.2,47.7H44.9V43H75v4.6H62.6V81h-5.4C57.2,81,57.2,47.7,57.2,47.7z"/>
		<path class="st0" d="M110.2,43v38h-5.4V63.8h-20v17.3h-5.4V43h5.4v16.2h20V43H110.2z"/>
		<path class="st0" d="M145,47.7V43h-25.8v38H145v-4.6h-20.5V63.8h0.4c0-1.6,0-3.3,0-4.6h-0.4V47.7H145z"/>
		<path class="st0" d="M59.8,98.1c12,0,20.7,4.6,20.7,19c0,14.5-8.7,19-20.7,19H49.4v-38C49.4,98.1,59.8,98.1,59.8,98.1z
			 M59.6,102.6h-4.9v29h4.9c7.8,0,15.4-1.6,15.4-14.5S67.4,102.6,59.6,102.6z"/>
		<path class="st0" d="M87.7,98.1h25.8v4.6H93v11.5h19.3v4.6H93v12.6h20.5v4.6H87.7V98.1z"/>
		<path class="st0" d="M175.2,120.1c-1,0.1-1.9,0.1-2.9,0.1h-6.7v16h-5.4v-38h12.1c9.2,0,15.8,1.8,15.8,11c0,6-2.9,8.9-7.6,10.2
			l8.8,16.9h-6L175.2,120.1z M165.6,102.6v13h7.1c5.6,0,9.9-0.6,9.9-6.5s-4.3-6.6-9.9-6.6L165.6,102.6L165.6,102.6z"/>
		<path class="st0" d="M211.4,136.9c-10.9,0-17.8-8.2-17.8-19.7s6.9-19.7,17.8-19.7s17.8,8.2,17.8,19.7
			C229.3,128.6,222.3,136.9,211.4,136.9z M211.4,132.3c6.9,0,12.4-5.4,12.4-15.2s-5.5-15.2-12.4-15.2c-7,0-12.4,5.4-12.4,15.2
			S204.4,132.3,211.4,132.3z"/>
		<path class="st0" d="M266.3,130.1l7-32h5.6l-9.5,38h-6.5l-7.3-31.3l-7.2,31.3h-6.5l-9.7-38h5.9l7.3,32l7-32h6.3L266.3,130.1z"/>
		<path class="st0" d="M292.9,102.8h-12.4v-4.6h30.1v4.6h-12.4v33.4h-5.4L292.9,102.8L292.9,102.8z"/>
		<path class="st0" d="M345.9,98.1v38h-5.4v-17.3h-20v17.3h-5.4v-38h5.4v16.2h20V98.1H345.9z"/>
		<path class="st0" d="M57.2,157.8H44.9v-4.6H75v4.6H62.6v33.4h-5.4C57.2,191.2,57.2,157.8,57.2,157.8z"/>
		<path class="st0" d="M93.6,192c-10.9,0-17.8-8.2-17.8-19.7s6.9-19.7,17.8-19.7s17.8,8.2,17.8,19.7C111.4,183.7,104.5,192,93.6,192
			z M93.6,187.4c6.9,0,12.4-5.4,12.4-15.2S100.5,157,93.6,157c-7,0-12.4,5.4-12.4,15.2S86.6,187.4,93.6,187.4z"/>
		<path class="st0" d="M122.7,172.3c0,9.8,5.4,15.2,12.4,15.2c6.9,0,12.4-5.4,12.4-15.2c0-4-0.9-7.2-2.4-9.6
			c1.2-1.1,2.9-1.6,4.8-2.2c2,3.2,3.1,7.2,3.1,11.8c0,11.5-6.9,19.7-17.8,19.7s-17.8-8.2-17.8-19.7c0-4.6,1.1-8.7,3.2-12
			c1.6,0.8,3,1.7,4.5,2.5C123.5,165.3,122.7,168.4,122.7,172.3z"/>
		<path class="st0" d="M165.4,186.7h20.1v4.6H160v-38h5.4V186.7z"/>
		<path class="st0" d="M190.1,153.2h13.7c7.1,0,13.4,1.8,13.4,9.4c0,3.6-1.5,6.9-4.2,8.4c3.6,1.5,5.8,4.4,5.8,9
			c0,8.1-6.1,11.2-13.6,11.2h-15L190.1,153.2L190.1,153.2z M195.4,169.5h9.2c4.4,0,7.1-1.7,7.1-6.1c0-3.9-2.9-5.6-7.1-5.6h-9.2
			V169.5z M195.4,186.8h9.7c5.5,0,8.1-2.3,8.1-6.7c0-4.5-2.6-6.3-8.4-6.3h-9.4L195.4,186.8L195.4,186.8z"/>
		<path class="st0" d="M241.3,192c-10.9,0-17.8-8.2-17.8-19.7s6.9-19.7,17.8-19.7s17.8,8.2,17.8,19.7
			C259.2,183.7,252.2,192,241.3,192z M241.3,187.4c6.9,0,12.4-5.4,12.4-15.2s-5.5-15.2-12.4-15.2c-7,0-12.4,5.4-12.4,15.2
			C228.9,182,234.3,187.4,241.3,187.4z"/>
		<path class="st0" d="M274.2,171.7L261,153.2h6.3l10,14.1l10.1-14.1h6l-13.2,18.3l14.1,19.8H288l-11-15.4l-11.1,15.4h-6
			L274.2,171.7z"/>
		<path class="st0" d="M49.4,208.3h24.7v4.6H54.7v11.5H73v4.6H54.7v17.3h-5.4v-38L49.4,208.3L49.4,208.3z"/>
		<path class="st0" d="M94.8,247.1c-10.9,0-17.8-8.2-17.8-19.7s6.9-19.7,17.8-19.7s17.8,8.2,17.8,19.7
			C112.6,238.8,105.7,247.1,94.8,247.1z M94.8,242.5c6.9,0,12.4-5.4,12.4-15.2s-5.5-15.2-12.4-15.2c-7,0-12.4,5.4-12.4,15.2
			S87.8,242.5,94.8,242.5z"/>
		<path class="st0" d="M177.5,208.3h6.2l14.3,38h-5.8l-3-8.2h-17.5l-2.9,8.2h-5.5L177.5,208.3z M173.4,233.6h14.2l-7.1-19.8
			L173.4,233.6z"/>
		<path class="st0" d="M132,225.9h-6.8v-13h7.1c5.6,0,9.9,0.7,9.9,6.6c0,2-0.5,3.4-1.4,4.4l-0.1,0.1c-0.7,1.8-0.1,2.9,0.5,3.4
			c0.6,0.6,2.7,0.5,3.5-0.1c2-1.7,3.1-4.2,3.1-8c0-9.1-6.6-11-15.8-11h-12.1v38h5.4v-16h6.7c0.2,0,0.3,0,0.5,0
			c3.1-0.1,1.9-2.5,2-3.5C134.5,226.3,133.2,225.9,132,225.9z"/>
		<path class="st0" d="M217.4,230.3c-1,0.1-1.9,0.1-2.9,0.1h-6.7v16h-5.4v-38h12.1c9.2,0,15.8,1.8,15.8,11c0,6-2.9,8.9-7.6,10.2
			l8.8,16.9h-6L217.4,230.3z M207.8,212.8v13h7.1c5.6,0,9.9-0.6,9.9-6.5s-4.3-6.6-9.9-6.6h-7.1V212.8z"/>
		<path class="st0" d="M244.5,212.9h-12.4v-4.6h30.1v4.6h-12.4v33.4h-5.4L244.5,212.9L244.5,212.9z"/>
		<path class="st0" d="M272.1,246.4h-5.4v-38h5.4V246.4z"/>
		<path class="st0" d="M293.3,207.6c6.9,0,12.9,3.1,14.4,10.4h-5.2c-1.3-4.4-5.7-5.9-9.4-5.9c-2.9,0-8.1,1.3-8.1,5.6
			c0,3.4,2.6,5,6.2,5.8l4.4,1c5.8,1.3,12.8,3.5,12.8,11.1c0,7.4-6.9,11.4-14.5,11.4c-9,0-14.6-4.9-15.6-12.5h5.2c1,5.2,4.6,8,10.5,8
			c5.7,0,8.9-2.6,8.9-6.4c0-4-3.4-5.6-8.2-6.7l-4.7-1c-5.2-1.2-10.4-4.1-10.4-10.4C279.5,210.7,287.1,207.6,293.3,207.6z"/>
		<path class="st0" d="M322.1,212.9h-12.4v-4.6h30.1v4.6h-12.4v33.4H322L322.1,212.9L322.1,212.9z"/>
		<path class="st0" d="M349.7,246.4h-5.4v-38h5.4V246.4z"/>
		<path class="st0" d="M390.7,234.3c-1.7,8.4-8.2,12.8-16.5,12.8c-10.9,0-17.3-8.2-17.3-19.8c0-11.8,7-19.6,17.7-19.6
			c7.9,0,14.2,4.7,15.8,12.8h-5.2c-1.1-4.8-4.9-8.3-10.9-8.3c-6.7,0-12,5.2-12,15.1c0,9.7,5,15.3,12.1,15.3c6.1,0,9.8-3.4,11-8.3
			H390.7z"/>
		<path class="st0" d="M61.3,263.4c9.3,0,15.8,2.1,15.8,11.5s-6.5,11.5-15.8,11.5h-6.6v15.1h-5.4v-38h12V263.4z M54.7,267.9v13.8h7
			c5.6,0,9.9-0.6,9.9-6.8c0-6.2-4.3-7-9.9-7H54.7z"/>
		<path class="st0" d="M97.7,285.4c-1,0.1-1.9,0.1-2.9,0.1h-6.7v16h-5.4v-38h12.1c9.2,0,15.8,1.8,15.8,11c0,6-2.9,8.9-7.6,10.2
			l8.8,16.9h-6L97.7,285.4z M88.1,267.9v13h7.1c5.6,0,9.9-0.6,9.9-6.5s-4.3-6.6-9.9-6.6h-7.1V267.9z"/>
		<path class="st0" d="M134.7,263.4h-6.2l-14.1,38h5.5l2.9-8.2h7.8c-0.2-1.5,0.4-3,0.5-4.6h-6.7l7-19.8l7.1,19.8H138v0.1
			c1.5,1.5,1.3,3,1.5,4.4h0.8l3,8.2h5.8L134.7,263.4z"/>
		<path class="st0" d="M184.1,289.4c-1.7,8.4-8.2,12.8-16.5,12.8c-10.9,0-17.3-8.2-17.3-19.8c0-11.8,7-19.6,17.7-19.6
			c7.9,0,14.2,4.7,15.8,12.8h-5.2c-1.1-4.8-4.9-8.3-10.9-8.3c-6.7,0-12,5.2-12,15.1c0,9.7,5,15.3,12.1,15.3c6.1,0,9.8-3.4,11-8.3
			H184.1z"/>
		<path class="st0" d="M197.4,268H185v-4.6h30.1v4.6h-12.4v33.4h-5.4L197.4,268L197.4,268z"/>
		<path class="st0" d="M225,301.5h-5.4v-38h5.4V301.5z"/>
		<path class="st0" d="M265.9,289.4c-1.7,8.4-8.2,12.8-16.5,12.8c-10.9,0-17.3-8.2-17.3-19.8c0-11.8,7-19.6,17.7-19.6
			c7.9,0,14.2,4.7,15.8,12.8h-5.2c-1.1-4.8-4.9-8.3-10.9-8.3c-6.7,0-12,5.2-12,15.1c0,9.7,5,15.3,12.1,15.3c6.1,0,9.8-3.4,11-8.3
			H265.9z"/>
		<path class="st0" d="M272.1,263.4h25.8v4.6h-20.5v11.5h19.3v4.6h-19.3v12.6h20.5v4.6h-25.8V263.4z"/>
		<path class="st0" d="M316.5,262.7c6.9,0,12.9,3.1,14.4,10.4h-5.2c-1.3-4.4-5.7-5.9-9.4-5.9c-2.9,0-8.1,1.3-8.1,5.6
			c0,3.4,2.6,5,6.2,5.8l4.4,1c5.8,1.3,12.8,3.5,12.8,11.1c0,7.4-6.9,11.4-14.5,11.4c-9,0-14.6-4.9-15.6-12.5h5.2c1,5.2,4.6,8,10.5,8
			c5.7,0,8.9-2.6,8.9-6.4c0-4-3.4-5.6-8.2-6.7l-4.7-1c-5.2-1.2-10.4-4.1-10.4-10.4C302.7,265.8,310.3,262.7,316.5,262.7z"/>
		<path class="st0" d="M143.8,63.8v-4.6h-20.3c0,1.4,0,3.1,0,4.6H143.8z"/>
		<path class="st0" d="M145,162.6c-2.2-3.6-5.8-5.6-10-5.6s-7.9,2-10.1,5.8c-1.9,3-3.2,2-4,1.5c-0.7-0.4-1.6-2.1-0.6-4.1
			c3-4.8,8.1-7.8,14.6-7.8c6.6,0,11.7,3,14.8,7.9c1.5,2.7,0.2,3-0.5,3.2C148.4,164.1,146.9,165.4,145,162.6z"/>
		<path class="st0" d="M140.2,229.5c1.8-0.5,3.3-1.2,4.5-2.2c-1.2-1-2.5-2.2-3.7-3.5h-0.2c-1.7,1.8-4.8,2.1-8.5,2.1H132
			c0.8,1.7-0.6,3.4,0.4,4.5c0.8,0,1.6,0,2.4-0.1l8.2,16.1h6L140.2,229.5z"/>
		<path class="st0" d="M138,288.7h-6.8c-2.2,0.2-3.3,1.2-3.4,1.7c-0.2,1-0.4,2.6,2.9,2.9h8.9c1.8-0.3,2-1.8,1.8-2.6
			c-0.2-0.7,0-1.5-1.5-2C139.8,288.6,138,288.7,138,288.7z"/>
		<path class="st0" d="M136.6,116.8v4.6h10.1v1c0,7.9-6.2,10-11.2,10c-7,0-12-5.6-12-15.3c0-6.2,2-10.5,5.2-12.9
			c2-1.8,3.5-1.3,3.2-2.9c-0.2-0.5-1-2.9-4.5-1.9c-5.9,3-9.4,9.4-9.4,17.7c0,11.5,6.3,19.8,17.2,19.8c5.1,0,9.6-1.5,12-5.5l0.3,4.8
			h4.2v-19.4C151.7,116.8,136.6,116.8,136.6,116.8z"/>
	</g>
</g>
</svg>
